<?xml version="1.0" encoding="UTF-8" standalone="no"?>
<!DOCTYPE svg PUBLIC "-//W3C//DTD SVG 1.1//EN" "http://www.w3.org/Graphics/SVG/1.1/DTD/svg11.dtd">
<svg width="100%" height="100%" viewBox="0 0 48 48" version="1.1" xmlns="http://www.w3.org/2000/svg" xmlns:xlink="http://www.w3.org/1999/xlink" xml:space="preserve" xmlns:serif="http://www.serif.com/" style="fill-rule:evenodd;clip-rule:evenodd;stroke-linejoin:round;stroke-miterlimit:2;">
    <rect x="0" y="0" width="48" height="48" style="fill:none;fill-rule:nonzero;"/>
    <path d="M24,8L24,2L16,10L24,18L24,12C30.62,12 36,17.38 36,24C36,26.02 35.5,27.94 34.6,29.6L37.52,32.52C39.08,30.06 40,27.14 40,24C40,15.16 32.84,8 24,8ZM24,36C17.38,36 12,30.62 12,24C12,21.98 12.5,20.06 13.4,18.4L10.48,15.48C8.92,17.94 8,20.86 8,24C8,32.84 15.16,40 24,40L24,46L32,38L24,30L24,36Z" style="fill:white;fill-rule:nonzero;"/>
</svg>
